<svg width="30" height="26" viewBox="0 0 30 26" fill="none" xmlns="http://www.w3.org/2000/svg">
<path d="M0 1.21875C0 0.543359 0.562058 0 1.26069 0H3.65075C4.80638 0 5.83069 0.65 6.30871 1.625H27.898C29.2795 1.625 30.2881 2.89453 29.9256 4.18438L27.772 11.9184C27.3255 13.5129 25.8284 14.625 24.1212 14.625H8.96666L9.25032 16.0723C9.36588 16.6461 9.88592 17.0625 10.49 17.0625H25.634C26.3327 17.0625 26.8947 17.6059 26.8947 18.2812C26.8947 18.9566 26.3327 19.5 25.634 19.5H10.49C8.6725 19.5 7.1124 18.2508 6.77621 16.5293L4.06573 2.76758C4.02896 2.57461 3.85561 2.4375 3.65075 2.4375H1.26069C0.562058 2.4375 0 1.89414 0 1.21875ZM6.72368 23.5625C6.72368 23.2424 6.7889 22.9254 6.91561 22.6297C7.04232 22.334 7.22805 22.0653 7.46218 21.8389C7.69631 21.6126 7.97427 21.433 8.28017 21.3105C8.58608 21.188 8.91395 21.125 9.24507 21.125C9.57618 21.125 9.90405 21.188 10.21 21.3105C10.5159 21.433 10.7938 21.6126 11.028 21.8389C11.2621 22.0653 11.4478 22.334 11.5745 22.6297C11.7012 22.9254 11.7664 23.2424 11.7664 23.5625C11.7664 23.8826 11.7012 24.1996 11.5745 24.4953C11.4478 24.791 11.2621 25.0597 11.028 25.2861C10.7938 25.5124 10.5159 25.692 10.21 25.8145C9.90405 25.937 9.57618 26 9.24507 26C8.91395 26 8.58608 25.937 8.28017 25.8145C7.97427 25.692 7.69631 25.5124 7.46218 25.2861C7.22805 25.0597 7.04232 24.791 6.91561 24.4953C6.7889 24.1996 6.72368 23.8826 6.72368 23.5625ZM24.3734 21.125C25.0421 21.125 25.6834 21.3818 26.1562 21.8389C26.6291 22.296 26.8947 22.916 26.8947 23.5625C26.8947 24.209 26.6291 24.829 26.1562 25.2861C25.6834 25.7432 25.0421 26 24.3734 26C23.7046 26 23.0633 25.7432 22.5905 25.2861C22.1176 24.829 21.852 24.209 21.852 23.5625C21.852 22.916 22.1176 22.296 22.5905 21.8389C23.0633 21.3818 23.7046 21.125 24.3734 21.125Z" fill="#AE7FE2"/>
</svg>
