<svg width="97" height="59" viewBox="0 0 97 59" fill="none" xmlns="http://www.w3.org/2000/svg">
<path d="M22.7292 27.0825C20.5559 28.9439 17.3662 29.9241 14.3745 29.3453C13.1341 29.1055 12.0709 28.6206 11.2995 27.9689C7.35408 24.6737 8.04205 18.0887 8.09417 17.4161C8.09417 17.3118 8.12023 17.2492 8.12023 17.2492C8.15671 17.0563 7.98993 16.8217 7.72933 16.7174C7.69285 16.7018 7.65637 16.6861 7.60425 16.7018C7.29674 16.6131 7.02051 16.7591 6.99445 17.0198C6.99445 17.0198 6.98403 17.0459 6.94755 17.1345C6.91106 17.6298 6.14491 22.2858 3.90899 22.5673C3.1689 22.6455 2.37669 22.2389 1.56363 21.1544C1.47503 21.0605 1.36558 20.9041 1.2874 20.7842C0.489974 19.5746 0.172047 18.2451 0.0625964 17.025C-0.270967 13.3858 0.688027 11.733 3.91942 9.30855C8.16192 6.13854 13.0246 2.18645 18.2157 0.778713C20.2067 0.236474 21.8797 0.439813 23.4641 1.10197C25.7574 2.04046 27.592 4.19899 27.1229 6.48786C26.044 11.7121 19.4197 14.2408 14.4162 14.4077C13.6918 14.4129 13.2592 14.4285 13.2592 14.4285C12.91 14.4598 12.6285 14.6684 12.5764 14.9447C12.5243 15.221 12.7536 15.4348 13.0924 15.4505C13.4729 15.4661 13.8586 15.4817 14.2442 15.4869C14.9739 15.4974 16.0997 15.4922 17.4131 15.5704C21.5566 15.8154 26.4089 16.6861 25.8981 21.2065C25.5697 24.1002 23.9853 25.998 22.7345 27.0877L22.7292 27.0825ZM13.6188 7.15002C13.6918 6.9154 13.5041 6.73813 13.2175 6.74856C12.936 6.75898 12.6546 6.95711 12.5764 7.18652C11.9301 9.05307 11.4663 10.0281 10.4708 11.9415C10.3509 12.1709 10.5021 12.4108 10.7992 12.4786C10.8235 12.4786 10.8495 12.482 10.8773 12.489C11.1484 12.5203 11.435 12.3951 11.5497 12.1814C12.5451 10.1532 13.009 9.11564 13.6136 7.15524L13.6188 7.15002Z" fill="#2D53A1"/>
<path d="M43.7594 23.2504C41.6225 25.0387 39.5325 26.3109 38.2764 26.7697C37.4842 27.0617 36.9786 27.1086 36.6607 26.9365C35.8737 26.3734 37.4894 23.7509 37.5103 23.7144C37.6353 23.4693 37.5936 23.2868 37.4112 23.2608C37.3539 23.2399 37.3174 23.2504 37.2445 23.2608C37.0568 23.2973 36.8223 23.4433 36.619 23.6466C36.5982 23.6831 32.4755 27.5726 29.6507 28.5997C25.6479 30.0596 25.257 27.7082 26.6121 22.7603C28.4988 15.8676 32.1316 8.62554 31.3081 1.13847C31.2143 0.194764 31.4905 -0.0763554 32.314 0.0174937C41.0596 2.34286 40.1423 11.4462 36.7441 18.0417C35.8581 19.7623 35.2222 20.8468 35.2222 20.8468C35.0398 21.1805 35.0919 21.4672 35.3004 21.4985C35.5245 21.5298 35.905 21.2378 36.103 20.9458C36.1239 20.9041 36.7233 19.8144 37.6093 18.1564C39.8817 13.8863 42.2896 8.73503 41.4609 3.72453C41.0961 1.9049 40.4811 1.03941 41.4192 0.987267C42.7587 0.914274 48.8514 2.35329 50.0189 7.09267C51.4521 12.9113 47.439 18.5735 43.7594 23.2504Z" fill="#2D53A1"/>
<path d="M71.3617 25.5445C70.8822 25.899 70.2359 26.1806 69.5688 26.3891C66.4885 27.3641 62.3451 23.4329 61.0577 18.2555C60.4792 15.9354 60.1248 13.902 58.8114 13.4275C57.5397 12.9687 55.8979 14.1418 55.2412 15.586C54.4386 17.364 55.7676 18.5631 57.3885 22.7029C57.868 23.9177 58.5143 25.5653 57.0289 25.4454C56.5494 25.4089 55.7051 25.1847 55.7051 25.1847C54.6575 24.9344 53.4379 24.5903 52.1141 24.2984C49.3517 23.6831 47.4494 22.2389 49.5237 16.5141C50.7329 13.1825 53.2398 13.4275 51.4834 7.10312C50.8059 4.66826 47.439 2.42109 47.7569 2.25946C47.7986 2.23861 47.9497 2.25946 48.0644 2.27511C54.1571 3.19795 61.5268 7.24911 65.0031 12.7445C67.4632 16.6288 67.9531 19.6737 67.9844 19.7884C68.0521 20.0647 68.4534 20.1846 68.787 20.0491C69.1206 19.9135 69.3082 19.585 69.2717 19.2983C69.2769 19.2566 68.7349 16.2378 66.254 12.3639C63.0904 7.43159 58.285 3.60985 52.4633 2.35331C50.8007 1.99356 50.4306 2.06655 51.5981 2.21254C51.7388 2.22818 51.8743 2.24904 52.0098 2.26468C58.9625 3.0624 68.4586 2.62443 73.7175 7.87998C78.1685 12.3274 75.8179 22.2493 71.3513 25.5445H71.3617Z" fill="#2D53A1"/>
<path d="M36.15 54.8618C33.6951 56.0297 31.2403 54.45 29.2859 52.7398C28.3581 51.9265 27.1333 51.0922 26.9196 49.6949C26.7998 48.9076 27.0708 48.1986 27.691 47.5625C27.7744 47.4843 27.8161 47.4478 27.9047 47.3643C29.7966 45.6229 33.9245 45.9931 34.1486 46.0348C34.3623 46.0765 34.5343 45.9201 34.5186 45.6959C34.503 45.4665 34.331 45.2319 34.1017 45.2058C34.0391 45.185 29.1973 45.0859 27.1907 47.0932C26.8779 47.4113 25.4759 48.0317 24.3085 47.745C23.6205 47.5677 23.0628 47.2131 22.6094 46.6761C21.3533 45.1797 21.6921 42.4112 23.4746 38.6364C25.2779 34.8199 28.3216 32.8386 30.2084 33.7197C31.871 34.4966 32.8821 36.4726 32.8769 38.7615C32.8977 39.4602 32.7987 40.1536 32.6111 40.7584C29.6298 41.139 27.962 42.4633 26.9666 43.5426C26.3411 42.6198 26.1483 41.0347 26.1274 40.3569C26.1014 40.1328 25.9346 39.992 25.7522 40.0285C25.5802 40.065 25.4238 40.2579 25.4186 40.4769C25.4186 43.1099 25.4238 44.3455 25.4499 46.1652C25.4342 46.2955 25.5802 46.4206 25.7365 46.4415C25.8929 46.4624 25.9971 46.405 26.0649 46.2277C26.0753 46.2017 26.216 45.5708 26.9978 44.6062C27.0395 44.6375 27.0864 44.6688 27.1281 44.7001C27.8057 45.1172 28.6396 45.2215 29.6663 44.9973C31.2038 44.6584 32.5798 43.4905 33.273 41.5978C33.3876 41.5978 33.4971 41.577 33.5857 41.5874C35.9519 41.4884 37.9793 42.8022 39.053 45.1224C40.7677 48.8294 38.8132 53.5897 36.1343 54.8671L36.15 54.8618ZM32.2567 41.7021C31.6208 43.089 30.5471 43.9701 29.3849 44.2882C28.6135 44.502 28.0246 44.455 27.5555 44.1266C27.5242 44.1161 27.4877 44.1005 27.4773 44.0796C28.3373 43.1933 29.7862 42.0932 32.2567 41.6969V41.7021Z" fill="#2D53A1"/>
<path d="M52.8854 42.0828C52.7499 43.2767 52.1245 43.8659 51.129 43.892C49.8886 43.9285 48.424 43.0786 48.398 43.0786C48.2208 42.9743 48.0644 43.0265 48.0071 43.1985C47.9445 43.381 47.9967 43.6469 48.1478 43.8607C48.1582 43.8972 51.3948 47.2862 51.3688 53.0944C51.3479 54.2623 50.8319 55.1851 49.9511 55.9099C48.6534 56.9839 46.6572 57.5731 45.2448 57.4897C43.8897 57.4114 43.1027 56.7076 42.9776 55.6231C42.5398 52.281 43.4154 44.2413 43.4154 44.137C43.4206 43.9597 43.3372 43.7512 43.1913 43.6156C43.1079 43.5114 42.9828 43.4488 42.8733 43.454C42.8212 43.454 42.79 43.454 42.7378 43.4644C42.0968 43.819 41.5078 43.9962 40.9606 44.0327C40.2517 44.0797 39.642 43.8868 39.0634 43.3967C37.6354 42.1662 36.5721 39.1578 35.6757 36.4257C34.5343 32.9533 39.1416 31.165 42.6909 30.8417C44.7184 30.654 46.5269 30.8052 47.5745 30.9669C48.6586 31.1337 49.529 31.8636 50.415 33.2974C51.9421 35.7427 53.1408 39.8512 52.8802 42.0775L52.8854 42.0828Z" fill="#2D53A1"/>
<path d="M66.9733 52.6825C64.482 56.7441 57.8472 57.8703 55.95 58.0632C55.0327 58.157 54.6835 57.8859 55.0327 57.1143C55.7051 55.6231 57.1905 52.2237 58.0244 49.4134C58.655 49.9713 59.3274 50.2372 60.0623 50.2268C61.1098 50.2164 62.1262 49.6689 62.8819 49.0954C63.1216 50.8472 62.5223 52.6356 61.9698 53.5949C61.8082 53.8973 61.6571 54.132 61.5685 54.2675C61.4226 54.4969 61.4069 54.6638 61.5164 54.6898C61.6258 54.7159 61.8395 54.6064 62.0115 54.4083C64.0806 51.9526 64.4142 50.3832 64.5132 47.2497C64.508 47.0359 64.4298 46.7857 64.2891 46.6553C64.1588 46.5302 64.0025 46.5198 63.9191 46.6553C63.893 46.6553 63.6376 47.0724 63.1581 47.5886C62.6005 46.0661 61.631 45.039 60.6043 44.6376C60.4062 44.5594 60.2238 44.5176 60.0258 44.5124C58.9573 44.4968 58.3163 45.842 57.7325 47.9588C57.3677 47.526 56.9872 46.9786 56.6537 46.3633C54.3344 41.6657 52.3642 36.7334 50.8684 31.7125C50.2795 29.5696 50.4723 28.7093 51.4261 28.8083C51.4417 28.8083 51.4469 28.8083 51.4626 28.8083C56.5077 30.7323 59.2544 37.2443 60.8284 42.0202C60.9431 42.3226 61.1724 42.5781 61.3496 42.6094C61.5112 42.6354 61.5998 42.4373 61.5112 42.1401C60.4896 39.064 55.4132 29.5748 59.2179 30.9721C59.2753 30.9929 59.3586 31.0242 59.4108 31.0451C59.958 31.2797 60.4271 31.5717 60.8753 31.9836C64.0129 35.6489 65.2898 41.1443 65.196 45.8732C65.1856 46.0505 65.2221 46.2486 65.3159 46.3894C65.4201 46.5458 65.5608 46.671 65.6651 46.6449C65.6651 46.6449 65.712 46.6501 65.8214 46.6657C66.1133 46.7022 66.9107 46.9369 67.4319 47.9223C68.0052 49.0224 68.1564 50.7273 66.9628 52.6669L66.9733 52.6825ZM62.6474 48.0839C61.9855 48.6001 61.0473 49.1997 60.0518 49.2049C59.416 49.2049 58.8427 49.0068 58.3006 48.5427C58.9625 46.4885 59.7026 45.3101 60.7242 45.7064C61.5372 46.0192 62.246 46.8378 62.6474 48.0839Z" fill="#2D53A1"/>
<path d="M79.2578 50.8994C76.7091 54.4813 68.4378 56.2383 66.2905 56.5616C65.1699 56.7337 65.9413 56.5042 66.671 55.6961C71.4034 50.9254 66.9576 42.4477 64.6748 37.5937C63.8774 35.5811 64.3569 33.8553 64.5497 33.6624C64.6018 33.6207 64.7321 33.6468 64.9198 33.7146C65.4045 33.8814 66.2019 34.189 67.1296 34.8199C71.3617 38.2923 73.6654 44.7314 72.3103 50.0912C72.2373 50.3206 72.2321 50.5813 72.2946 50.6595C72.3624 50.743 72.5292 50.6387 72.6438 50.4353C74.0875 47.7971 74.9944 45.9931 76.6049 45.6073C77.3971 45.4196 78.2571 45.5448 78.992 46.0349C80.2063 46.916 80.7171 48.8295 79.2473 50.8942L79.2578 50.8994Z" fill="#2D53A1"/>
<path d="M94.6173 36.7438C93.8824 36.7959 92.7306 36.7229 91.5787 36.6447C91.0992 36.6135 90.6302 36.5926 90.1872 36.5457C89.5044 36.4258 89.1448 36.3788 88.389 36.3006C88.1493 36.3111 88.0138 36.4883 88.0555 36.7594C88.092 36.9941 88.2796 37.2287 88.5089 37.286C89.2803 37.359 89.6503 37.406 90.3487 37.5207C92.0947 37.9117 92.986 38.6521 93.1892 39.4446C93.3925 40.3101 92.6889 41.3633 90.4999 42.5207C89.0718 43.1255 88.2587 43.4644 86.5544 44.2517C86.3095 44.3977 86.1479 44.7262 86.1844 44.9817C86.2522 45.2319 86.4554 45.3883 86.7317 45.2789C88.4672 44.5176 89.2907 44.1839 90.7396 43.5791C92.6628 42.9013 94.0388 42.6771 94.9665 42.7241C96.4779 42.7971 96.9783 43.5166 96.9991 44.9973C97.0304 46.8639 96.2174 49.2779 93.773 51.1444C89.9057 53.8243 84.256 54.695 79.6539 54.9297C79.362 54.9505 79.2161 54.9609 78.9086 54.9818C76.8915 55.1017 77.0531 54.9401 78.1789 53.8556C79.805 52.2862 84.5739 49.5021 82.2181 42.4477C80.2532 36.577 77.2824 37.2652 77.7724 35.4664C79.0024 30.9773 89.8849 31.1859 90.5207 31.3944C90.6719 31.4413 90.7605 31.4726 90.8491 31.5039C93.5384 32.4841 93.7208 33.0889 94.5443 34.6426C95.0759 35.6489 95.5137 36.6812 94.6017 36.7438H94.6173Z" fill="#2D53A1"/>
</svg>
