<svg width="26" height="26" viewBox="0 0 26 26" fill="none" xmlns="http://www.w3.org/2000/svg">
<path d="M21.126 10.561C21.126 12.8915 20.3694 15.0443 19.0947 16.7909L25.5239 23.2239C26.1587 23.8586 26.1587 24.8893 25.5239 25.524C24.8891 26.1587 23.8582 26.1587 23.2234 25.524L16.7942 19.091C15.0472 20.3705 12.894 21.1219 10.563 21.1219C4.72796 21.1219 0 16.3949 0 10.561C0 4.72704 4.72796 0 10.563 0C16.3981 0 21.126 4.72704 21.126 10.561ZM10.563 17.8724C11.5234 17.8724 12.4743 17.6833 13.3615 17.3158C14.2488 16.9484 15.0549 16.4098 15.734 15.7309C16.413 15.052 16.9517 14.246 17.3192 13.3589C17.6867 12.4719 17.8759 11.5211 17.8759 10.561C17.8759 9.6008 17.6867 8.65005 17.3192 7.76299C16.9517 6.87593 16.413 6.06992 15.734 5.39099C15.0549 4.71206 14.2488 4.17351 13.3615 3.80607C12.4743 3.43864 11.5234 3.24952 10.563 3.24952C9.60268 3.24952 8.65174 3.43864 7.76451 3.80607C6.87727 4.17351 6.07111 4.71206 5.39204 5.39099C4.71298 6.06992 4.17432 6.87593 3.80682 7.76299C3.43931 8.65005 3.25016 9.6008 3.25016 10.561C3.25016 11.5211 3.43931 12.4719 3.80682 13.3589C4.17432 14.246 4.71298 15.052 5.39204 15.7309C6.07111 16.4098 6.87727 16.9484 7.76451 17.3158C8.65174 17.6833 9.60268 17.8724 10.563 17.8724Z" fill="#AE7FE2"/>
</svg>
