<svg width="22" height="26" viewBox="0 0 22 26" fill="none" xmlns="http://www.w3.org/2000/svg">
<path d="M11 13C12.6671 13 14.2659 12.3152 15.4447 11.0962C16.6235 9.87721 17.2857 8.22391 17.2857 6.5C17.2857 4.77609 16.6235 3.12279 15.4447 1.90381C14.2659 0.68482 12.6671 0 11 0C9.33292 0 7.73413 0.68482 6.55533 1.90381C5.37653 3.12279 4.71429 4.77609 4.71429 6.5C4.71429 8.22391 5.37653 9.87721 6.55533 11.0962C7.73413 12.3152 9.33292 13 11 13ZM8.7558 15.4375C3.91875 15.4375 0 19.4898 0 24.4918C0 25.3246 0.653125 26 1.45848 26H20.5415C21.3469 26 22 25.3246 22 24.4918C22 19.4898 18.0813 15.4375 13.2442 15.4375H8.7558Z" fill="#AE7FE2"/>
</svg>
